<svg width="128" height="128" viewBox="0 0 128 128" fill="none" xmlns="http://www.w3.org/2000/svg">
<g id="logos:tailwindcss">
<g id="Frame 16">
<path id="Vector" d="M64 33C50.1335 33 41.4665 39.9155 38 53.746C43.2 46.8305 49.2665 44.2373 56.2 45.9662C60.1557 46.9525 62.9832 49.8152 66.1129 52.9834C71.2113 58.1452 77.1117 64.119 90 64.119C103.867 64.119 112.533 57.2035 116 43.373C110.8 50.2884 104.733 52.8817 97.8 51.1527C93.8443 50.1665 91.0168 47.3038 87.8871 44.1356C82.7887 38.9738 76.8883 33 64 33ZM38 64.119C24.1335 64.119 15.4665 71.0344 12 84.8649C17.2 77.9495 23.2665 75.3562 30.2 77.0852C34.1557 78.0714 36.9832 80.9341 40.1129 84.1024C45.2113 89.2641 51.1117 95.2379 64 95.2379C77.8665 95.2379 86.5335 88.3225 90 74.492C84.8 81.4074 78.7335 84.0007 71.8 82.2717C67.8443 81.2854 65.0168 78.4227 61.8871 75.2545C56.7887 70.0927 50.8883 64.119 38 64.119Z" fill="url(#paint0_linear_3_2)"/>
</g>
</g>
<defs>
<linearGradient id="paint0_linear_3_2" x1="-276.912" y1="2024.61" x2="8693.51" y2="7210.27" gradientUnits="userSpaceOnUse">
<stop stop-color="#2298BD"/>
<stop offset="1" stop-color="#0ED7B5"/>
</linearGradient>
</defs>
</svg>
