<svg width="128" height="128" viewBox="0 0 128 128" fill="none" xmlns="http://www.w3.org/2000/svg">
<g id="logos:powerpoint">
<g id="Frame 13">
<path id="Vector" d="M74.8829 69.1143L67.6289 16H67.0866C54.4226 16.0215 42.2822 21.0557 33.3191 30.0021C24.356 38.9485 19.2992 51.0795 19.254 63.7434V64.2857L74.8829 69.1143Z" fill="#ED6C47"/>
<path id="Vector_2" d="M68.1711 16H67.6288V64.2857L91.8125 73.9428L116 64.2857V63.7434C115.955 51.0802 110.898 38.9497 101.936 30.0034C92.9738 21.0571 80.8344 16.0225 68.1711 16Z" fill="#FF8F6B"/>
<path id="Vector_3" d="M116 64.2857V64.8168C115.953 77.4824 110.895 89.6146 101.931 98.5625C92.9668 107.511 80.8257 112.547 68.16 112.571H67.094C54.4289 112.545 42.2889 107.508 33.3254 98.5604C24.3618 89.6128 19.3031 77.4818 19.254 64.8168V64.2857H116Z" fill="#D35230"/>
<path id="Vector_4" opacity="0.1" d="M70.0468 39.7306V91.2514C70.0401 92.128 69.775 92.9831 69.2848 93.7098C68.7946 94.4365 68.101 95.0026 67.2908 95.3371C66.7617 95.56 66.1934 95.6749 65.6194 95.6751H30.6717C29.9936 94.8973 29.348 94.0919 28.7365 93.2608C22.5756 85.0597 19.2475 75.078 19.2539 64.8205V63.7583C19.2423 54.5057 21.9508 45.4539 27.0428 37.7286C27.5708 36.8988 28.136 36.0932 28.7365 35.3143H65.6194C66.7893 35.322 67.9092 35.7894 68.7375 36.6157C69.5658 37.4419 70.0361 38.5607 70.0468 39.7306Z" fill="black"/>
<path id="Vector_5" opacity="0.2" d="M67.6288 42.1486V93.6694C67.6286 94.2411 67.5137 94.8069 67.2908 95.3334C66.9557 96.1429 66.3894 96.8358 65.6627 97.3253C64.936 97.8148 64.0812 98.0793 63.2051 98.0857H32.8742C32.1091 97.3081 31.3749 96.5034 30.6716 95.6714C29.9936 94.8936 29.348 94.0882 28.7365 93.2571C22.5756 85.0559 19.2475 75.0743 19.2539 64.8168V63.7545C19.243 54.5033 21.9515 45.4529 27.0428 37.7286H63.2013C64.3719 37.7363 65.4924 38.2043 66.3208 39.0313C67.1492 39.8583 67.619 40.978 67.6288 42.1486Z" fill="black"/>
<path id="Vector_6" opacity="0.2" d="M67.6288 42.1486V88.8408C67.6181 90.0107 67.1478 91.1295 66.3195 91.9557C65.4912 92.7819 64.3713 93.2493 63.2013 93.2571H28.7365C22.5756 85.0559 19.2475 75.0743 19.2539 64.8168V63.7545C19.243 54.5033 21.9515 45.4529 27.0428 37.7286H63.2013C64.3719 37.7363 65.4924 38.2043 66.3208 39.0313C67.1492 39.8583 67.619 40.978 67.6288 42.1486Z" fill="black"/>
<path id="Vector_7" opacity="0.2" d="M65.2108 42.1486V88.8408C65.2001 90.0107 64.7298 91.1295 63.9015 91.9557C63.0732 92.7819 61.9533 93.2493 60.7833 93.2571H28.7365C22.5756 85.0559 19.2475 75.0743 19.2539 64.8168V63.7545C19.243 54.5033 21.9515 45.4529 27.0428 37.7286H60.7833C61.9539 37.7363 63.0744 38.2043 63.9028 39.0313C64.7312 39.8583 65.201 40.978 65.2108 42.1486Z" fill="black"/>
<path id="Vector_8" d="M16.4349 37.7286H60.776C61.9505 37.7276 63.0774 38.193 63.909 39.0225C64.7406 39.852 65.2089 40.9777 65.2108 42.1523V86.4191C65.2089 87.5937 64.7406 88.7194 63.909 89.5489C63.0774 90.3784 61.9505 90.8438 60.776 90.8428H16.4349C15.8531 90.8438 15.2769 90.7301 14.7391 90.5083C14.2014 90.2864 13.7126 89.9608 13.3007 89.55C12.8888 89.1392 12.562 88.6512 12.3388 88.114C12.1156 87.5768 12.0005 87.0008 12 86.4191V42.1523C12.0005 41.5705 12.1156 40.9946 12.3388 40.4574C12.562 39.9202 12.8888 39.4322 13.3007 39.0214C13.7126 38.6105 14.2014 38.2849 14.7391 38.0631C15.2769 37.8412 15.8531 37.7276 16.4349 37.7286Z" fill="url(#paint0_linear_1_79)"/>
<path id="Vector_9" d="M39.0883 49.5326C41.9748 49.3384 44.8364 50.1756 47.1631 51.8948C48.1198 52.7465 48.8699 53.8049 49.3565 54.9897C49.843 56.1745 50.0532 57.4546 49.9711 58.7328C50.0036 60.5334 49.5231 62.306 48.5857 63.8437C47.6373 65.3568 46.2712 66.5629 44.6523 67.3165C42.8025 68.1744 40.7814 68.5987 38.7429 68.5571H33.1231V78.9571H27.3809V49.5326H39.0883ZM33.1194 64.0628H38.0631C39.6306 64.1758 41.1853 63.7122 42.4349 62.7591C42.9458 62.2718 43.3436 61.6783 43.6003 61.0205C43.857 60.3627 43.9664 59.6566 43.9206 58.952C43.9206 55.7106 42.0325 54.0887 38.2563 54.0863H33.1194V64.0628Z" fill="white"/>
</g>
</g>
<defs>
<linearGradient id="paint0_linear_1_79" x1="21.2634" y1="34.252" x2="55.9474" y2="94.3194" gradientUnits="userSpaceOnUse">
<stop stop-color="#CA4C28"/>
<stop offset="0.5" stop-color="#C5401E"/>
<stop offset="1" stop-color="#B62F14"/>
</linearGradient>
</defs>
</svg>
