<svg width="128" height="128" viewBox="0 0 128 128" fill="none" xmlns="http://www.w3.org/2000/svg">
<g id="logos:photoshop">
<g id="Frame 10">
<path id="Vector" d="M98.7344 13H29.2656C19.7301 13 12 20.7717 12 30.3585V97.5872C12 107.174 19.7301 114.946 29.2656 114.946H98.7344C108.27 114.946 116 107.174 116 97.5872V30.3585C116 20.7717 108.27 13 98.7344 13Z" fill="#001E36"/>
<path id="Vector_2" d="M35.4179 84.4907V39.6697C35.4179 39.3429 35.5577 39.1787 35.8368 39.1787L36.2783 39.1775L37.0332 39.1693L38.0821 39.1485L41.5962 39.0738L45.3641 39.0035C46.6893 38.9806 48.0031 38.9684 49.3056 38.9684C52.8399 38.9684 55.8165 39.4128 58.2357 40.3011C60.418 41.0432 62.4082 42.2652 64.0614 43.8782C65.4629 45.2764 66.5459 46.9637 67.2358 48.8235C67.8885 50.6334 68.2192 52.5446 68.2128 54.4698C68.2128 58.2115 67.352 61.2976 65.6311 63.7286C63.9479 66.1003 61.6002 67.9141 58.8874 68.9386L58.6546 69.0244C55.8218 70.0867 52.6848 70.4707 49.2442 70.4948L48.7096 70.4964L47.9162 70.4923L47.516 70.4866L47.07 70.476L46.801 70.4654L46.6377 70.4568L46.2359 70.4421L45.7448 70.4319L45.0054 70.4266L44.8409 70.4262V84.4204C44.8531 84.5062 44.8453 84.5937 44.8181 84.6759C44.7908 84.7581 44.7449 84.8328 44.684 84.8941C44.623 84.9554 44.5487 85.0015 44.4669 85.0289C44.3851 85.0563 44.2981 85.0641 44.2128 85.0518H35.9066C35.5804 85.0518 35.4179 84.8656 35.4179 84.4907ZM44.8413 47.5958V62.2145C45.3981 62.2597 45.9564 62.2831 46.515 62.2848H48.8177C50.4052 62.2794 51.9835 62.0418 53.5029 61.5794L53.806 61.4843C55.1883 61.0715 56.4235 60.2679 57.3643 59.1692C58.2386 58.1326 58.6916 56.7043 58.7228 54.8839L58.7249 54.6801C58.7614 53.3233 58.4104 51.9844 57.7129 50.8224C56.9798 49.6986 55.9202 48.8291 54.6782 48.3322C53.0564 47.6985 51.3241 47.4004 49.5851 47.4557L48.7002 47.4581L48.1421 47.463L47.6095 47.47L46.8579 47.4847L46.3095 47.5002L46.0247 47.5108L45.644 47.5288L45.3198 47.5488L45.135 47.5635L44.9753 47.579L44.9051 47.5872L44.8413 47.5958ZM95.1878 59.5564C93.9708 58.9277 92.6799 58.4553 91.3455 58.1506L91.0368 58.0836C89.5688 57.7449 88.0702 57.5584 86.5644 57.5269L86.1882 57.5224C85.3054 57.4984 84.424 57.6048 83.5719 57.8381C83.0295 57.9594 82.5473 58.2699 82.211 58.7146C81.9837 59.0704 81.8627 59.4844 81.8624 59.9073C81.8752 60.3174 82.0223 60.7118 82.2809 61.0293C82.6511 61.4646 83.0963 61.8295 83.5951 62.1063L83.7462 62.1868C84.7409 62.7252 85.7659 63.2053 86.8158 63.6245C89.1573 64.4125 91.3946 65.4842 93.4783 66.816C94.8981 67.7168 96.073 68.9582 96.8973 70.4286C97.5904 71.8207 97.9375 73.3609 97.9089 74.9173C97.9507 76.9729 97.3664 78.9922 96.2343 80.7044C95.0225 82.4423 93.3393 83.7934 91.3853 84.5968C89.3391 85.5011 86.826 85.968 83.8466 85.9986L83.537 86.0002C81.69 86.019 79.8455 85.8565 78.0299 85.515L77.6415 85.439C76.1128 85.1572 74.6247 84.6859 73.2113 84.0361C73.0693 83.9623 72.9493 83.852 72.8635 83.7164C72.7777 83.5808 72.7292 83.4247 72.723 83.2641V75.619C72.7147 75.5448 72.7265 75.4697 72.7573 75.4017C72.788 75.3337 72.8366 75.2754 72.8977 75.233C72.9576 75.199 73.0264 75.1841 73.0949 75.1904C73.1634 75.1967 73.2284 75.2238 73.2812 75.2682C74.9503 76.2577 76.7627 76.9795 78.6531 77.4075C80.3193 77.8275 82.0285 78.0512 83.7462 78.0741C85.3737 78.0741 86.5713 77.8634 87.3391 77.4427C87.6858 77.2831 87.9791 77.0259 88.1834 76.7023C88.3877 76.3786 88.4944 76.0023 88.4904 75.619C88.4904 75.0121 88.1414 74.4272 87.4439 73.8656C87.1514 73.6303 86.7317 73.3742 86.1857 73.0977L85.9245 72.9687L85.6458 72.8367L85.4996 72.7698L85.1933 72.6333C85.1401 72.61 85.0869 72.5869 85.0336 72.5639L84.7005 72.4234L84.527 72.3519L84.1671 72.2069L83.9802 72.1334L83.5931 71.9835L83.188 71.8312C80.9973 71.0646 78.9202 70.0028 77.0134 68.6748C75.6498 67.7212 74.5269 66.4601 73.7346 64.9923C73.0485 63.6102 72.7016 62.0829 72.723 60.5383C72.7191 58.6824 73.2262 56.8617 74.188 55.2777C75.2848 53.5336 76.8595 52.1449 78.7229 51.2799C80.7692 50.2518 83.327 49.7372 86.397 49.7364C88.1951 49.7219 89.9915 49.851 91.7693 50.1224C93.0565 50.2865 94.3151 50.6288 95.5092 51.1394C95.7013 51.1949 95.8561 51.3375 95.9276 51.5253C95.9752 51.6965 95.9983 51.8733 95.9975 52.0514V59.1357C96.0077 59.3032 95.9276 59.4637 95.7883 59.5564C95.695 59.6031 95.5922 59.6273 95.4881 59.6273C95.3839 59.6273 95.2811 59.6031 95.1878 59.5564Z" fill="#31A8FF"/>
</g>
</g>
</svg>
