<svg width="128" height="128" viewBox="0 0 128 128" fill="none" xmlns="http://www.w3.org/2000/svg">
<g id="logos:mysql">
<g id="Frame 4">
<path id="Vector" d="M42.938 74.9363L46.0986 84.349C46.8087 86.4861 47.1049 87.978 46.9862 88.8284C48.7148 84.579 49.9226 79.9483 50.6098 74.9363H54.4103C52.7761 83.0959 50.6208 89.0254 47.9454 92.7244C45.8609 95.5748 43.5774 97 41.0907 97C40.4277 97 39.6104 96.8161 38.6405 96.4511V94.4842C39.1143 94.5479 39.6703 94.582 40.3097 94.582C41.4698 94.582 42.4048 94.2869 43.1161 93.6979C43.9678 92.9803 44.3942 92.1738 44.3942 91.2798C44.3942 90.6694 44.0617 89.4168 43.3997 87.5218L38.9959 74.9363H42.938ZM18.7484 69.1509L24.5375 85.3628H24.5732L30.3978 69.1509H35.1567C36.1987 77.1909 36.8142 84.5472 37.0031 91.2151H32.9909C32.8498 84.9819 32.4587 79.1207 31.8193 73.6303H31.7844L25.6748 91.2151H22.6194L16.5467 73.6303H16.511C16.0605 78.9031 15.7769 84.7644 15.6587 91.2151H12C12.2364 83.3698 12.8281 76.0157 13.7751 69.1509H18.7484Z" fill="#00758F"/>
<path id="Vector_2" d="M83.6012 68.8235C89.8284 68.8235 92.9421 72.4751 92.9421 79.7747C92.9421 83.7414 92.0057 86.7376 90.1347 88.7618C89.7975 89.1317 89.4248 89.4513 89.0323 89.7473L93.4391 91.7472L93.4349 91.7471L91.8702 94.2271L86.1313 91.1536C85.1801 91.4122 84.1334 91.5414 82.9928 91.5414C79.9352 91.5414 77.6512 90.7235 76.1412 89.0897C74.4837 87.2824 73.6554 84.4372 73.6554 80.5589C73.6554 76.6146 74.5902 73.6297 76.4617 71.6029C78.1664 69.749 80.5466 68.8235 83.6012 68.8235ZM64.5318 68.8556C66.7575 68.8556 68.7812 69.4022 70.604 70.4916L69.6782 72.3852C68.1184 71.7767 66.5805 71.4711 65.064 71.4711C63.8335 71.4711 62.8853 71.7429 62.2243 72.2899C61.5597 72.8321 61.1486 73.5298 61.1486 74.3803C61.1486 75.6872 62.163 76.8206 64.036 77.7781C64.6496 78.086 65.2611 78.3974 65.8704 78.7124L66.0102 78.7845L66.0802 78.8207L66.2202 78.8929L66.2901 78.929L66.4298 79.0014C67.8476 79.735 69.1817 80.4353 69.1817 80.4353C71.0546 81.6555 71.9881 82.9565 71.9881 85.0992C71.9881 86.9705 71.241 88.5066 69.7517 89.7085C68.2614 90.9051 66.2592 91.5051 63.7518 91.5051C61.4067 91.5051 59.134 90.8145 56.9325 89.4449L57.9623 87.5496C59.8569 88.4212 61.5713 88.8565 63.1107 88.8565C64.5546 88.8565 65.6847 88.5606 66.5023 87.9763C67.3183 87.3877 67.8072 86.5669 67.8072 85.526C67.8072 84.2159 66.8143 83.0959 64.9929 82.1565C64.4228 81.8674 63.8544 81.5755 63.2877 81.2808L63.1481 81.2082C62.8918 81.0753 62.6336 80.9407 62.3807 80.8089L62.2436 80.7373C61.0137 80.0952 59.9503 79.5342 59.9503 79.5342C58.1295 78.3117 57.2165 77.0001 57.2165 74.8389C57.2165 73.0515 57.8973 71.6068 59.2571 70.5078C60.62 69.4063 62.3785 68.8556 64.5318 68.8556ZM100.26 69.1509V88.501H107.824V91.2151H96.4243V69.1509H100.26ZM112.028 88.5094V88.968H111.196V91.2127H110.56V88.968H109.696V88.5094H112.028H112.028ZM113.563 88.5094L114.362 90.3521L115.095 88.5094H115.996V91.2127H115.397V89.1554L114.562 91.2127H114.13L113.294 89.1554H113.262V91.2127H112.695V88.5094H113.563H113.563ZM83.2096 71.5369C79.5399 71.5369 77.7041 74.3167 77.7041 79.8726C77.7041 83.0551 78.1905 85.3628 79.1617 86.8012C80.0611 88.1324 81.4698 88.7967 83.3879 88.7967C87.0576 88.7967 88.8932 85.9952 88.8932 80.395C88.8932 77.257 88.4067 74.9691 87.4368 73.5299C86.5363 72.2018 85.1283 71.5369 83.2098 71.5369H83.2096Z" fill="#F29111"/>
<path id="Vector_3" d="M73.5912 33.3671C74.8085 30.6216 79.065 32.7008 80.7168 33.6598C81.1216 33.8998 81.586 34.4067 82.0501 34.5941C82.7742 34.6202 83.4978 34.6722 84.2231 34.7C85.5837 34.9934 86.8581 35.2332 87.9302 35.7936C92.9124 38.4867 96.1557 41.2311 99.1406 45.7642C99.7785 46.7243 100.097 47.7634 100.618 48.8024C101.341 50.3511 102.154 51.9769 102.993 53.4414C103.369 54.1357 103.66 54.9077 104.181 55.4941C104.385 55.7621 104.964 55.8412 105.31 56.0014C106.266 56.4557 107.425 56.8006 108.324 57.3338C110.004 58.2951 111.628 59.4406 113.104 60.6133C113.654 61.066 114.029 61.7067 114.554 62.1855V62.4271C114.088 62.5582 113.624 62.6924 113.16 62.8C112.147 63.039 111.249 62.985 110.265 63.2242C109.657 63.386 108.903 63.5995 108.265 63.6537L108.324 63.7082C108.699 64.6916 110.728 65.4915 111.656 66.0797C112.783 66.8262 113.827 67.7315 114.668 68.7713C114.958 69.0366 115.248 69.278 115.537 69.5426C115.739 69.8107 115.796 70.1575 116 70.3965V70.4774C115.774 70.4041 115.611 70.2643 115.457 70.1181L115.365 70.0299C115.273 69.9423 115.18 69.8562 115.074 69.7851C114.435 69.3843 113.8 68.9048 113.16 68.5321C112.061 67.8919 110.786 67.5203 109.657 66.8776C109.019 66.5046 108.411 66.0797 107.802 65.6527C107.251 65.2785 106.643 64.56 106.297 64.0268C106.093 63.7322 106.065 63.386 105.832 63.1729C105.873 62.817 106.228 62.7113 106.587 62.6244L106.669 62.6044C106.793 62.575 106.914 62.5455 107.02 62.5066C108.526 61.9197 110.321 61.7067 112.64 61.7601C112.552 61.2257 111.104 60.56 110.641 60.24C109.713 59.6259 108.73 58.9851 107.745 58.4262C107.223 58.1335 106.324 57.9198 105.746 57.6806C104.964 57.3871 103.225 57.0939 102.792 56.5349C102.055 55.6538 101.527 54.6029 101.013 53.5413L100.873 53.2516C100.827 53.155 100.78 53.0585 100.733 52.962C100.126 51.6836 99.3722 50.3508 98.7638 49.0418C98.4457 48.4032 98.2997 47.8428 97.9513 47.2303C95.8374 43.4721 92.7087 40.3256 88.9153 38.1127C87.6688 37.3927 86.2788 36.7264 84.7444 36.2735C83.8748 36.0325 82.8311 36.1658 81.9047 35.9808H81.2949C80.7745 35.8462 80.34 35.3398 79.934 35.0729C79.0372 34.5139 78.1389 34.1386 77.0664 33.7398C76.6907 33.5799 75.6175 33.2074 75.243 33.5006C75.011 33.5541 74.8934 33.6345 74.8363 33.8481C74.6056 34.167 74.8085 34.6472 74.9521 34.9412C75.3872 35.7933 75.995 36.2996 76.5466 37.0197C77.0374 37.6582 77.647 38.3782 77.9949 39.0725C78.7457 40.565 79.0952 42.2185 79.791 43.7108C80.0489 44.2719 80.457 44.9105 80.8326 45.4167C81.1509 45.8184 81.7296 46.1089 81.9047 46.6175C82.2536 47.1507 81.3822 48.9102 81.1805 49.4689C80.4259 51.6553 80.5722 54.6944 81.4411 56.5896L81.4875 56.6895L81.5338 56.7907C81.851 57.4848 82.1907 58.2323 83.0342 58.4264C83.0923 58.3734 83.0342 58.4012 83.1494 58.3734C83.3536 56.9065 83.411 55.4939 83.9619 54.3461C84.2802 53.6285 84.9158 53.1212 85.3515 52.5355C85.642 52.695 85.642 53.1762 85.815 53.4947C86.192 54.3206 86.5969 55.2261 87.0616 56.0545C88.0155 57.7604 89.0888 59.4143 90.3049 60.9066C90.7122 61.4396 91.2901 62.0263 91.8113 62.5064C92.0435 62.6923 92.3035 62.7997 92.4779 63.0389H92.5348V63.1194C91.6658 62.8254 91.115 62.0002 90.4219 61.5184C89.117 60.6129 87.5544 59.253 86.655 57.9481C86.2788 57.199 85.8721 56.4811 85.4667 55.7357V55.6818C85.2934 55.8947 85.3515 56.1061 85.2648 56.4283C84.8886 57.7604 85.1782 59.2801 83.8748 59.7592C82.3973 60.3204 81.2951 58.8537 80.8326 58.1872C79.3546 55.9749 78.9498 52.2427 79.992 49.2301C80.2236 48.5632 80.2551 47.7634 80.6593 47.2309C80.572 46.7495 80.1678 46.6179 79.934 46.3229C79.5285 45.8188 79.1814 45.2315 78.8639 44.6717C78.2541 43.578 77.8202 42.2713 77.3573 41.0984C77.1538 40.6194 77.0955 40.1386 76.8926 39.6852C76.5464 38.9931 75.9084 38.2988 75.4163 37.6865C74.7498 36.8066 72.8087 35.101 73.5912 33.3671ZM83.0917 38.5902C83.1691 38.6614 83.2626 38.7237 83.3593 38.785L83.4758 38.8585C83.6312 38.9573 83.7818 39.0613 83.874 39.203C84.0202 39.3906 84.0474 39.5757 84.2225 39.7637C84.2225 40.4045 84.0202 40.8305 83.6117 41.096C83.6117 41.096 83.5839 41.1239 83.5553 41.15C83.3237 40.7229 83.1208 40.298 82.8876 39.8712C82.6004 39.4987 82.1943 39.2032 81.9603 38.7776H81.9041V38.7241C82.2536 38.6448 82.6004 38.5902 83.0917 38.5902Z" fill="#00758F"/>
</g>
</g>
</svg>
