<svg width="128" height="128" viewBox="0 0 128 128" fill="none" xmlns="http://www.w3.org/2000/svg">
<g id="logos:python">
<g id="Frame 6">
<path id="Vector" d="M63.6542 16C39.2833 16 40.805 26.6239 40.805 26.6239L40.8321 37.6306H64.0887V40.935H31.5949C31.5949 40.935 16 39.1572 16 63.8757C16 88.595 29.6116 87.7183 29.6116 87.7183H37.735V76.2476C37.735 76.2476 37.297 62.5648 51.1293 62.5648H74.1957C74.1957 62.5648 87.1552 62.7753 87.1552 49.9745V28.8091C87.1552 28.8091 89.1234 16 63.6542 16ZM50.8305 23.4018C51.38 23.4013 51.9243 23.5097 52.4321 23.7209C52.94 23.9321 53.4014 24.2418 53.79 24.6325C54.1786 25.0231 54.4868 25.487 54.6968 25.9974C54.9069 26.5079 55.0148 27.055 55.0143 27.6075C55.0148 28.1599 54.9069 28.707 54.6968 29.2175C54.4868 29.728 54.1786 30.1919 53.79 30.5825C53.4014 30.9731 52.94 31.2829 52.4321 31.4941C51.9243 31.7053 51.38 31.8137 50.8305 31.8132C50.2809 31.8137 49.7366 31.7053 49.2288 31.4941C48.721 31.2829 48.2595 30.9731 47.8709 30.5825C47.4823 30.1919 47.1742 29.728 46.9641 29.2175C46.754 28.707 46.6461 28.1599 46.6466 27.6075C46.6461 27.055 46.754 26.5079 46.9641 25.9974C47.1742 25.487 47.4823 25.0231 47.8709 24.6325C48.2595 24.2418 48.721 23.9321 49.2288 23.7209C49.7366 23.5097 50.2809 23.4013 50.8305 23.4018Z" fill="url(#paint0_linear_1_44)"/>
<path id="Vector_2" d="M64.3462 112C88.7171 112 87.1954 101.376 87.1954 101.376L87.1683 90.3698H63.9113V87.0653H96.4051C96.4051 87.0653 112 88.8432 112 64.1239C112 39.405 98.3884 40.2817 98.3884 40.2817H90.265V51.752C90.265 51.752 90.703 65.4348 76.8707 65.4348H53.8043C53.8043 65.4348 40.8449 65.2243 40.8449 78.0255V99.1913C40.8449 99.1913 38.877 112 64.3458 112H64.3462ZM77.1699 104.599C76.6204 104.599 76.0761 104.491 75.5683 104.28C75.0604 104.069 74.599 103.759 74.2104 103.368C73.8218 102.978 73.5136 102.514 73.3035 102.003C73.0935 101.493 72.9856 100.946 72.9861 100.393C72.9855 99.8408 73.0934 99.2936 73.3034 98.7831C73.5135 98.2726 73.8217 97.8087 74.2103 97.418C74.5989 97.0273 75.0603 96.7175 75.5682 96.5063C76.076 96.2951 76.6203 96.1867 77.1699 96.1872C77.7195 96.1867 78.2638 96.2951 78.7716 96.5063C79.2794 96.7175 79.7409 97.0273 80.1295 97.4179C80.5181 97.8085 80.8262 98.2724 81.0363 98.7828C81.2464 99.2933 81.3543 99.8404 81.3538 100.393C81.3543 100.945 81.2464 101.492 81.0363 102.003C80.8262 102.513 80.5181 102.977 80.1295 103.368C79.7409 103.759 79.2794 104.068 78.7716 104.279C78.2638 104.491 77.7195 104.599 77.1699 104.599Z" fill="url(#paint1_linear_1_44)"/>
</g>
</g>
<defs>
<linearGradient id="paint0_linear_1_44" x1="938.557" y1="879.463" x2="5720.58" y2="5589.16" gradientUnits="userSpaceOnUse">
<stop stop-color="#387EB8"/>
<stop offset="1" stop-color="#366994"/>
</linearGradient>
<linearGradient id="paint1_linear_1_44" x1="1402.54" y1="1516.25" x2="6536.65" y2="6344.45" gradientUnits="userSpaceOnUse">
<stop stop-color="#FFE052"/>
<stop offset="1" stop-color="#FFC331"/>
</linearGradient>
</defs>
</svg>
