<svg width="128" height="128" viewBox="0 0 128 128" fill="none" xmlns="http://www.w3.org/2000/svg">
<g id="logos:zbrush">
<g id="Frame 7">
<path id="Vector" fill-rule="evenodd" clip-rule="evenodd" d="M115.843 109.258C116.762 106.21 113.545 100.374 109.01 93.6475C97.1333 76.6048 75.2312 67.5476 63.3126 69.246L63.3851 68.7796C67.3741 64.0275 71.5258 58.757 75.7134 55.5382C83.6932 59.9419 90.5375 58.1667 97.2247 51.0522C100.442 47.8586 101.743 45.3827 101.165 43.624C100.189 40.7171 97.8394 39.3177 94.1153 39.3542C90.6396 39.501 85.1589 42.9143 82.8723 44.9521C74.6653 41.2915 68.8075 39.1383 65.2644 38.5282C51.8882 36.1598 40.3192 40.3949 30.5938 51.1954C25.3515 57.1165 22.9656 60.5615 23.4718 61.5668C23.8992 62.1357 25.2071 62.0031 26.5809 61.818C29.8782 60.8797 37.5456 58.284 37.5354 56.7219C37.5878 52.4123 37.7741 50.1948 42.7415 46.7459C50.0877 41.9794 55.6225 42.2313 64.6865 48.7552C67.9772 51.0157 70.6334 52.6904 72.1154 53.5148C65.8529 58.7099 60.5245 64.2307 56.5883 70.1428C40.8715 74.1183 18.4662 86.2403 12.7342 100.466C11.8919 102.542 11.6993 103.576 12.5534 104.09C21.4871 107.749 41.811 95.8831 54.5272 79.7964C66.7344 78.4194 101.06 82.2497 98.7435 93.1449C97.7456 95.4778 97.7681 95.9331 97.9113 96.5184C99.18 99.9392 107.485 106.26 113.131 109.042C114.687 109.724 115.59 109.796 115.843 109.258ZM87.3549 46.3866C86.6003 45.8963 91.1743 43.7031 94.5136 43.1573C97.8611 42.6345 99.5706 44.0458 98.3452 45.239C95.6863 47.6745 88.6281 47.2967 87.3549 46.3866ZM27.5569 97.8105C23.4379 100.046 19.6451 101.661 18.2657 99.4612C17.7955 96.0522 20.3985 92.535 26.0385 88.9105C32.5454 84.7717 39.5813 82.0886 47.0798 80.6573L47.9112 80.7646C42.3956 87.345 35.286 93.4387 27.5569 97.8105ZM36.4146 49.4375C35.5106 50.9087 34.9321 52.3803 34.6793 53.8515C34.4262 55.0358 34.1003 55.8608 33.6669 56.328C32.763 57.2604 32.04 57.6552 31.4975 57.5114C31.1361 57.4756 31.0638 57.2604 31.2808 56.9013C31.606 56.3628 32.3295 54.8205 33.4136 52.2722C34.5346 49.9038 35.5106 48.5758 36.3784 48.2534C36.9933 48.0737 36.9933 48.4685 36.4146 49.4375ZM57.4922 39.3177C60.9988 39.2461 64.9762 40.0713 69.459 41.7942C71.9539 42.7631 75.2431 44.1974 79.3642 46.1723C83.5587 48.0024 86.5595 49.0064 88.4032 49.1859C88.8003 49.5091 88.6193 49.6526 87.8609 49.6526C84.463 49.4732 81.2077 48.7554 78.0629 47.4997L69.134 43.3732C65.0836 41.6147 61.1434 40.3949 57.3115 39.6768C57.022 39.5328 57.0943 39.4256 57.4922 39.3179V39.3177ZM87.6433 78.0736C82.7632 75.6693 77.2321 74.0189 71.0498 73.0499C63.9272 72.6192 60.3482 72.2245 60.2397 71.9013C60.1672 71.6146 60.6374 71.3634 61.686 71.1841C70.4821 70.2902 80.1659 73.0354 90.3191 78.6835C93.1663 80.5172 90.8432 79.7234 87.6433 78.0736ZM98.7067 85.1068C98.0204 84.353 97.8394 84.1022 98.0923 84.2816C99.3212 85.0711 100.587 86.2911 101.924 87.9781C103.913 90.418 104.528 92.4636 103.841 94.1496L103.443 94.5088C103.118 94.473 102.756 93.8631 102.394 92.6431C101.688 89.3841 101.748 88.4303 98.7067 85.1068ZM103.226 97.8819C102.478 96.2456 103.387 94.8508 104.419 96.5184L106.986 100.322C107.348 100.789 107.383 101.04 107.13 101.004C106.096 101.011 104.115 99.4553 103.226 97.8819ZM66.9288 23.2772C65.5543 25.3946 65.0483 27.4402 65.4454 29.4134C65.807 31.2796 66.8555 32.7506 68.627 33.7912C70.3267 34.8323 72.9657 35.1908 76.6179 34.9039C81.2814 34.5807 83.631 33.6117 83.6678 32.0327C83.9204 29.4136 82.9077 26.5426 80.6302 23.4925C78.1718 20.2269 75.5328 18.7197 72.6758 19.0428C70.4707 19.3297 68.555 20.7294 66.9288 23.2772ZM72.9291 24.3539C72.1498 23.7228 72.4356 22.5667 73.2907 22.0929L74.8095 22.2006C75.4241 22.5953 75.8576 23.0621 76.0754 23.6722C76.6701 25.4101 74.0551 25.1077 72.9289 24.3539H72.9291ZM79.7982 31.8895C80.1966 31.9972 80.3406 32.1772 80.3052 32.3567C80.2333 32.6792 79.5451 32.8944 78.2807 33.0016L76.509 32.8944C75.4609 32.6609 76.6963 31.7169 78.4615 31.7464L79.798 31.8895H79.7982Z" fill="black"/>
</g>
</g>
</svg>
