<svg width="128" height="128" viewBox="0 0 128 128" fill="none" xmlns="http://www.w3.org/2000/svg">
<g id="logos:visual-studio-code">
<g id="Frame 14">
<g id="Mask group">
<path id="Vector" d="M108.605 26.091L88.8367 16.5911C87.7202 16.0547 86.4643 15.8778 85.2428 16.085C84.0212 16.2922 82.8943 16.8733 82.0181 17.7477L17.3041 76.6389C15.5636 78.2232 15.5659 80.9581 17.3086 82.5398L22.5947 87.3359C23.2853 87.9626 24.1738 88.3284 25.1062 88.3698C26.0386 88.4112 26.9562 88.1257 27.6998 87.5627L105.63 28.5555C108.245 26.5761 112 28.4372 112 31.7125V31.4834C112 30.3567 111.681 29.253 111.081 28.299C110.48 27.3451 109.622 26.5797 108.605 26.091Z" fill="#0065A9"/>
</g>
<g id="Mask group_2">
<path id="Vector_2" d="M108.605 101.173L88.8367 110.673C87.7202 111.209 86.4643 111.386 85.2428 111.179C84.0212 110.972 82.8944 110.391 82.0181 109.516L17.3041 50.625C15.5636 49.0411 15.5659 46.3058 17.3086 44.7245L22.5947 39.928C23.2853 39.3014 24.1738 38.9357 25.1063 38.8943C26.0387 38.853 26.9563 39.1386 27.6998 39.7016L105.63 98.7085C108.245 100.688 112 98.8267 112 95.5511V95.7805C112 96.9072 111.681 98.011 111.081 98.9649C110.48 99.9188 109.622 100.684 108.605 101.173Z" fill="#007ACC"/>
</g>
<g id="Mask group_3">
<path id="Vector_3" d="M88.7746 110.68C87.6579 111.216 86.4018 111.393 85.1802 111.186C83.9586 110.978 82.8316 110.397 81.9553 109.523C84.168 111.731 87.9518 110.167 87.9518 107.043V20.2329C87.9518 17.1094 84.168 15.5454 81.9553 17.7538C82.8316 16.8792 83.9585 16.298 85.1801 16.0906C86.4018 15.8831 87.6578 16.0596 88.7746 16.5957L108.539 26.0824C109.557 26.5708 110.416 27.3362 111.017 28.2904C111.618 29.2446 111.937 30.3488 111.937 31.4759V95.8008C111.937 98.1009 110.616 100.198 108.539 101.194L88.7746 110.68Z" fill="#1F9CF0"/>
</g>
<g id="Mask group_4">
<mask id="mask0_2_42" style="mask-type:luminance" maskUnits="userSpaceOnUse" x="16" y="16" width="96" height="96">
<g id="Group">
<path id="Vector_4" d="M84.0339 110.857C84.7974 111.154 85.6139 111.291 86.4327 111.26C87.2514 111.229 88.055 111.029 88.7933 110.675L108.546 101.188C109.563 100.699 110.422 99.9339 111.022 98.9797C111.623 98.0254 111.942 96.9213 111.942 95.7944V31.4699C111.942 30.343 111.623 29.239 111.022 28.2848C110.422 27.3307 109.563 26.5651 108.546 26.0763L88.7937 16.5896C87.6776 16.0536 86.4221 15.8771 85.201 16.0846C83.98 16.2921 82.8537 16.8733 81.9782 17.7477L44.1638 52.1808L27.6922 39.7016C26.9492 39.1387 26.0322 38.8531 25.1004 38.8945C24.1685 38.9358 23.2805 39.3015 22.5905 39.928L17.3078 44.7245C15.5658 46.3058 15.5639 49.0411 17.3032 50.625L31.5878 63.6321L17.3032 76.6389C15.5639 78.2232 15.5658 80.9581 17.3078 82.5398L22.5905 87.3359C23.2804 87.9625 24.1684 88.3282 25.1003 88.3696C26.0322 88.4111 26.9492 88.1256 27.6922 87.5627L44.1638 75.0832L81.9782 109.516C82.5628 110.101 83.2629 110.557 84.0339 110.857V110.857ZM87.9709 41.8938L59.2784 63.6321L87.9709 85.3701V41.8938V41.8938Z" fill="url(#paint0_linear_2_42)" fill-opacity="0.25"/>
</g>
</mask>
<g mask="url(#mask0_2_42)">
<path id="Vector_5" d="M84.0339 110.857C84.7974 111.154 85.6139 111.291 86.4326 111.26C87.2514 111.228 88.055 111.029 88.7933 110.675L108.546 101.188C109.563 100.699 110.422 99.9337 111.022 98.9795C111.623 98.0254 111.942 96.9213 111.942 95.7944V31.4698C111.942 30.343 111.623 29.2389 111.022 28.2848C110.422 27.3306 109.563 26.5651 108.546 26.0763L88.7929 16.5892C87.6769 16.0533 86.4215 15.8768 85.2005 16.0843C83.9795 16.2918 82.8533 16.8729 81.9778 17.7473L44.1638 52.1807L27.6922 39.7015C26.9492 39.1386 26.0322 38.8531 25.1004 38.8944C24.1685 38.9358 23.2805 39.3015 22.5905 39.928L17.3078 44.7245C15.5658 46.3058 15.5639 49.041 17.3032 50.625L31.5878 63.6321L17.3032 76.6389C15.5639 78.2232 15.5658 80.9581 17.3078 82.5398L22.5905 87.3359C23.2804 87.9624 24.1684 88.3282 25.1003 88.3696C26.0322 88.411 26.9492 88.1255 27.6922 87.5627L44.1638 75.0831L81.9778 109.516C82.5626 110.101 83.2628 110.557 84.0339 110.857ZM87.9709 41.8934L59.2784 63.6321L87.9709 85.37V41.8934Z" fill="url(#paint1_linear_2_42)" fill-opacity="0.25"/>
</g>
</g>
</g>
</g>
<defs>
<linearGradient id="paint0_linear_2_42" x1="4813.08" y1="16" x2="4813.08" y2="9542.44" gradientUnits="userSpaceOnUse">
<stop stop-color="white"/>
<stop offset="1" stop-color="white" stop-opacity="0"/>
</linearGradient>
<linearGradient id="paint1_linear_2_42" x1="4813.08" y1="15.9997" x2="4813.08" y2="9542.46" gradientUnits="userSpaceOnUse">
<stop stop-color="white"/>
<stop offset="1" stop-color="white" stop-opacity="0"/>
</linearGradient>
</defs>
</svg>
