<svg width="128" height="128" viewBox="0 0 128 128" fill="none" xmlns="http://www.w3.org/2000/svg">
<g id="logos:illustrator">
<g id="Frame 11">
<path id="Vector" d="M98.7344 13H29.2656C19.7301 13 12 20.773 12 30.3614V97.6013C12 107.19 19.7301 114.963 29.2656 114.963H98.7344C108.27 114.963 116 107.19 116 97.6013V30.3614C116 20.773 108.27 13 98.7344 13Z" fill="#330000"/>
<path id="Vector_2" d="M62.3969 74.1899H46.281L43.0017 84.4323C42.9571 84.6192 42.8491 84.7845 42.6962 84.8998C42.5434 85.015 42.3553 85.0731 42.1645 85.0639H34.0017C33.5365 85.0639 33.3736 84.8065 33.5134 84.2918L47.4668 43.8834C47.6062 43.4626 47.7459 42.9834 47.8853 42.4454C48.0681 41.5091 48.1615 40.5581 48.1644 39.6043C48.1549 39.5375 48.161 39.4695 48.1821 39.4056C48.2033 39.3416 48.239 39.2835 48.2864 39.2358C48.3337 39.1881 48.3915 39.1522 48.4551 39.1309C48.5187 39.1095 48.5863 39.1033 48.6527 39.1128H59.7457C60.0707 39.1128 60.2568 39.2301 60.3039 39.4641L76.1408 84.3621C76.2805 84.8302 76.1408 85.0643 75.7223 85.0639H66.6524C66.4966 85.0813 66.3399 85.041 66.2116 84.9506C66.0832 84.8603 65.9919 84.726 65.9549 84.5729L62.3969 74.1899ZM48.7924 65.3507H59.8156L59.6584 64.829L59.4061 64.003L59.2261 63.4229L58.9389 62.5095L58.3283 60.5867L57.7913 58.882L56.3966 54.4416C56.0495 53.3377 55.7163 52.2295 55.3972 51.1171L55.1421 50.2144L54.8439 49.1469L54.3889 47.4925L54.3036 47.1808H54.2341C53.8851 48.8647 53.46 50.5318 52.9601 52.1768L51.925 55.5249L51.3555 57.3746L50.7806 59.2472C50.6766 59.5854 50.5734 59.92 50.4698 60.2505L50.1611 61.2301L49.854 62.1868L49.5485 63.1198L49.2446 64.0296C49.1438 64.329 49.0431 64.6244 48.9427 64.916L48.7924 65.3507ZM85.5585 46.5493C84.8469 46.578 84.1373 46.4554 83.4761 46.1894C82.8149 45.9235 82.217 45.5202 81.7214 45.0059C81.2272 44.4693 80.8433 43.8398 80.5918 43.1536C80.3404 42.4673 80.2263 41.7378 80.2561 41.0071C80.2308 40.2837 80.3575 39.563 80.628 38.8922C80.8985 38.2214 81.3067 37.6155 81.8258 37.114C82.8273 36.1473 84.1609 35.6064 85.5491 35.6038L85.6978 35.6054C87.3724 35.6054 88.6866 36.1079 89.6401 37.1136C90.1213 37.6362 90.4953 38.249 90.7407 38.9171C90.9861 39.5852 91.098 40.2954 91.0701 41.0071C91.0993 41.7407 90.9816 42.4728 90.7239 43.1598C90.4663 43.8469 90.0739 44.4748 89.5702 45.0063C89.0616 45.5104 88.4578 45.9071 87.7945 46.173C87.1311 46.4389 86.4215 46.5686 85.7076 46.5546L85.5585 46.5493ZM80.7444 84.3621V50.8287C80.7444 50.408 80.9296 50.1972 81.3026 50.1972H89.8842C90.2559 50.1972 90.442 50.4076 90.4424 50.8287V84.3621C90.4424 84.8302 90.2563 85.0643 89.8842 85.0639H81.3725C80.976 85.0639 80.7671 84.8539 80.7464 84.434L80.7444 84.3621Z" fill="#FF9A00"/>
</g>
</g>
</svg>
