<svg width="128" height="128" viewBox="0 0 128 128" fill="none" xmlns="http://www.w3.org/2000/svg">
<g id="logos:FlowBite">
<g id="Frame 19">
<path id="Vector" d="M89.558 54.8165C89.3357 56.3472 88.3259 58.427 87.1676 60.2352C85.7061 62.5168 83.3865 64.1147 80.7321 64.6696L69.039 67.1141C67.1598 67.507 65.4555 68.4901 64.176 69.92L56.5089 78.4874C55.068 80.0973 54.0609 79.7134 54.0609 77.5538C54.0435 77.6339 50.2558 87.3991 60.2937 93.187C64.1505 95.4111 69.7026 94.6118 73.5594 92.388L93.9947 80.6044C101.637 76.1976 107.033 68.7423 108.827 60.1128C108.898 59.7712 108.953 59.4287 109.012 59.0865L89.558 54.8165Z" fill="url(#paint0_linear_3_12)"/>
<path id="Vector_2" d="M84.2582 43.0447C88.115 45.2687 89.6909 48.5797 89.6909 53.0276C89.6909 53.6313 89.6435 54.2278 89.558 54.8153L97.7921 58.3512L109.012 59.0854C110.448 50.7735 107.633 42.2178 102.586 35.4173C98.7875 30.2995 93.8999 25.8584 88.0241 22.4701C83.2508 19.7178 78.2907 17.9045 73.3074 16.9094L67.7082 24.1582L65.9394 32.4816L84.2582 43.0447Z" fill="url(#paint1_linear_3_12)"/>
<path id="Vector_3" d="M18.3508 49.1449C18.3487 49.1515 18.3545 49.1533 18.3567 49.1467C18.7887 47.8515 19.3305 46.4059 20.0069 44.862C23.54 36.7963 30.3485 31.417 38.7247 28.6742C47.1009 25.9315 56.2464 26.8929 63.8802 31.2948L65.9394 32.4821L73.3073 16.9099C49.8729 12.2309 25.9218 25.9944 18.3806 49.0547C18.377 49.0658 18.3639 49.1042 18.3508 49.1449Z" fill="url(#paint2_linear_3_12)"/>
<path id="Vector_4" d="M72.7596 92.3871C68.9028 94.6112 64.1508 94.6112 60.294 92.3871C59.7705 92.0851 59.277 91.7459 58.8102 91.3782L52.0272 96.0403L46.1808 105.485C52.6698 110.883 61.0962 112.619 69.5169 111.653C75.8538 110.927 82.1483 108.92 88.0244 105.532C92.7974 102.78 96.8501 99.3962 100.204 95.5832L96.7187 87.116L91.0784 81.8239L72.7596 92.3871Z" fill="url(#paint3_linear_3_12)"/>
<path id="Vector_5" d="M58.8102 91.3786C55.8387 89.0387 54.0615 85.4497 54.0615 81.6055V81.2223V49.2068C54.0615 47.3962 54.5949 47.0885 56.1651 47.9939C53.7468 46.5994 48.1608 41.8129 41.2635 45.7899C37.4067 48.014 34.2307 52.9232 34.2307 57.3708V80.9382C34.2307 89.7519 38.7971 98.9458 45.3834 104.812C45.6439 105.044 45.9136 105.263 46.1808 105.485L58.8102 91.3786Z" fill="url(#paint4_linear_3_12)"/>
<path id="Vector_6" d="M99.7312 31.9319C99.7267 31.9268 99.7222 31.9309 99.7267 31.936C100.634 32.9575 101.616 34.1488 102.617 35.5058C107.844 42.5946 109.797 51.5727 107.988 60.189C106.178 68.8049 100.772 76.2348 93.1376 80.6365L91.0784 81.8238L100.205 95.5832C115.979 77.6533 116.02 50.0555 99.7945 32.0028C99.787 31.9941 99.76 31.9636 99.7312 31.9319Z" fill="url(#paint5_linear_3_12)"/>
<path id="Vector_7" d="M35.0306 57.3702C35.0306 52.9223 37.4065 48.8121 41.2633 46.5883C41.7869 46.2863 42.328 46.0293 42.88 45.8091L42.229 37.6113L37.6558 28.232C29.7301 31.1454 23.3191 37.1663 19.9458 44.9322C17.4073 50.7762 16 57.2244 16 64.0005C16 69.5052 16.9076 74.702 18.5366 79.5101L27.6217 80.7286L35.0306 78.4964V57.3702Z" fill="url(#paint6_linear_3_12)"/>
<path id="Vector_8" d="M42.88 45.8091C46.3947 44.409 50.3955 44.6662 53.7288 46.5883L54.0612 46.7799L80.7473 62.1678C82.6193 63.2471 82.4492 64.3094 80.3333 64.7517L81.8729 64.43C83.8985 64.0065 85.7492 62.9715 87.1646 61.4633C89.5979 58.8703 90.4913 55.742 90.4913 53.0272C90.491 48.5794 88.1153 44.4693 84.2585 42.2453L63.8229 30.4617C56.1804 26.0549 47.0181 25.1152 38.6382 27.8788C38.3067 27.9881 37.9823 28.112 37.6558 28.232L42.88 45.8091Z" fill="url(#paint7_linear_3_12)"/>
<path id="Vector_9" d="M73.9664 110.927C73.9733 110.925 73.9721 110.919 73.9652 110.921C72.6257 111.195 71.1017 111.449 69.4248 111.636C60.6642 112.613 51.9027 109.813 45.3362 103.94C38.7699 98.0664 35.0308 89.6754 35.0308 80.8717L35.0307 78.497L18.5367 79.5107C26.1968 102.12 50.1069 115.954 73.8734 110.946C73.8848 110.944 73.9247 110.936 73.9664 110.927Z" fill="url(#paint8_linear_3_12)"/>
</g>
</g>
<defs>
<linearGradient id="paint0_linear_3_12" x1="76.1796" y1="87.2878" x2="85.6169" y2="54.4073" gradientUnits="userSpaceOnUse">
<stop stop-color="#1724C9"/>
<stop offset="1" stop-color="#1C64F2"/>
</linearGradient>
<linearGradient id="paint1_linear_3_12" x1="97.9277" y1="47.1905" x2="73.0967" y2="22.4391" gradientUnits="userSpaceOnUse">
<stop stop-color="#1C64F2"/>
<stop offset="1" stop-color="#0092FF"/>
</linearGradient>
<linearGradient id="paint2_linear_3_12" x1="64.4934" y1="31.0587" x2="27.023" y2="33.4272" gradientUnits="userSpaceOnUse">
<stop stop-color="#0092FF"/>
<stop offset="1" stop-color="#45B2FF"/>
</linearGradient>
<linearGradient id="paint3_linear_3_12" x1="61.9593" y1="101.961" x2="95.6082" y2="92.8782" gradientUnits="userSpaceOnUse">
<stop stop-color="#1C64F2"/>
<stop offset="1" stop-color="#0092FF"/>
</linearGradient>
<linearGradient id="paint4_linear_3_12" x1="37.8064" y1="63.0333" x2="61.6896" y2="87.7889" gradientUnits="userSpaceOnUse">
<stop stop-color="#1724C9"/>
<stop offset="1" stop-color="#1C64F2"/>
</linearGradient>
<linearGradient id="paint5_linear_3_12" x1="92.3513" y1="80.8863" x2="109.012" y2="47.2895" gradientUnits="userSpaceOnUse">
<stop stop-color="#0092FF"/>
<stop offset="1" stop-color="#45B2FF"/>
</linearGradient>
<linearGradient id="paint6_linear_3_12" x1="32.0916" y1="43.3834" x2="23.1768" y2="76.9011" gradientUnits="userSpaceOnUse">
<stop stop-color="#1C64F2"/>
<stop offset="1" stop-color="#0092FF"/>
</linearGradient>
<linearGradient id="paint7_linear_3_12" x1="77.6291" y1="41.7893" x2="45.0341" y2="49.9073" gradientUnits="userSpaceOnUse">
<stop stop-color="#1724C9"/>
<stop offset="1" stop-color="#1C64F2"/>
</linearGradient>
<linearGradient id="paint8_linear_3_12" x1="35.2203" y1="80.0496" x2="55.9887" y2="111.299" gradientUnits="userSpaceOnUse">
<stop stop-color="#0092FF"/>
<stop offset="1" stop-color="#45B2FF"/>
</linearGradient>
</defs>
</svg>
