<svg width="128" height="128" viewBox="0 0 128 128" fill="none" xmlns="http://www.w3.org/2000/svg">
<g id="logos:blender">
<g id="Frame 9">
<path id="Vector" d="M52.8002 68.6738C53.1784 61.9455 56.4816 56.0182 61.4655 51.8162C66.3526 47.6891 72.9306 45.1665 80.1082 45.1665C87.2785 45.1665 93.8569 47.6891 98.7477 51.8162C103.728 56.0178 107.031 61.9455 107.413 68.6665C107.791 75.5795 105.005 82.0015 100.118 86.7618C95.1342 91.604 88.0455 94.6424 80.1082 94.6424C72.1709 94.6424 65.0685 91.604 60.0883 86.7618C55.1974 82.0011 52.4183 75.5791 52.8002 68.6738Z" fill="white"/>
<path id="Vector_2" d="M66.0999 69.2738C66.2937 65.8217 67.989 62.7801 70.5459 60.6242C73.0537 58.5068 76.4288 57.2122 80.1119 57.2122C83.7909 57.2122 87.1664 58.5068 89.6758 60.6242C92.2311 62.7801 93.926 65.8217 94.1218 69.2706C94.316 72.8174 92.8868 76.1127 90.3786 78.5551C87.8217 81.0396 84.1845 82.5987 80.1119 82.5987C76.0392 82.5987 72.3948 81.0396 69.8395 78.5551C67.3301 76.1127 65.9041 72.8174 66.0999 69.2738Z" fill="#265787"/>
<path id="Vector_3" d="M43.8544 76.3659C43.8787 77.7192 44.3114 80.3504 44.961 82.4046C46.3256 86.7533 48.6404 90.7767 51.8615 94.3219C55.1672 97.9664 59.2374 100.894 63.9393 102.972C68.8809 105.155 74.2353 106.267 79.7969 106.258C85.3495 106.25 90.7042 105.116 95.6459 102.917C100.347 100.818 104.414 97.8785 107.714 94.2324C110.933 90.6721 113.245 86.6419 114.613 82.2932C115.301 80.0959 115.736 77.8659 115.91 75.6281C116.081 73.4206 116.009 71.2011 115.695 69.0092C115.083 64.71 113.591 60.6761 111.295 56.9987C109.194 53.6196 106.487 50.6614 103.267 48.1713L103.275 48.166L70.7871 23.2864C70.7574 23.2645 70.7334 23.241 70.7022 23.2208C68.571 21.5888 64.9862 21.5944 62.6422 23.2297C60.2721 24.8836 60.0007 27.6189 62.11 29.3437L62.101 29.3531L75.6515 40.3429L34.351 40.3867H34.2957C30.882 40.3907 27.6007 42.6245 26.9507 45.4473C26.2833 48.3232 28.6021 50.7088 32.1515 50.7218L32.1459 50.7344L53.0799 50.6939L15.7244 79.2913C15.6769 79.3261 15.6253 79.3626 15.5814 79.3974C12.0576 82.0886 10.9185 86.5637 13.1379 89.3954C15.3905 92.2754 20.1802 92.2807 23.7406 89.4121L44.1278 72.7712C44.1278 72.7712 43.8304 75.0175 43.8544 76.3659ZM96.2422 83.8883C92.0416 88.1568 86.1603 90.5769 79.7973 90.5899C73.4244 90.6008 67.5436 88.2022 63.343 83.9414C61.2902 81.8649 59.7826 79.4756 58.8523 76.9307C57.9379 74.4263 57.5861 71.7521 57.8216 69.0972C58.0434 66.4789 58.8251 63.9819 60.0722 61.7222C61.2975 59.5015 62.985 57.4943 65.0691 55.7966C69.1519 52.4782 74.3507 50.6813 79.7875 50.674C85.2304 50.6667 90.4251 52.447 94.5124 55.7549C96.5924 57.4448 98.2784 59.4447 99.5036 61.6623C100.767 63.9338 101.537 66.4452 101.764 69.0331C101.996 71.6865 101.642 74.3583 100.729 76.861C99.7969 79.4136 98.2946 81.8029 96.2422 83.8883Z" fill="#EA7600"/>
</g>
</g>
</svg>
