<svg width="128" height="128" viewBox="0 0 128 128" fill="none" xmlns="http://www.w3.org/2000/svg">
<g id="logos:bootstrap">
<g id="Frame 17">
<path id="Vector" d="M33.6011 22C27.667 22 23.2759 27.2143 23.4725 32.869C23.6614 38.3015 23.416 45.338 21.6517 51.076C19.8821 56.8306 16.8888 60.4759 12 60.9441V66.2281C16.8888 66.6963 19.8821 70.3417 21.6517 76.0967C23.416 81.8347 23.6614 88.8704 23.4725 94.3032C23.2759 99.9572 27.667 105.172 33.6019 105.172H94.4066C100.341 105.172 104.731 99.958 104.534 94.3032C104.346 88.8708 104.591 81.8347 106.355 76.0967C108.126 70.3421 111.111 66.6959 116 66.2281V60.9441C111.111 60.4759 108.126 56.8306 106.356 51.076C104.591 45.3388 104.346 38.3019 104.534 32.869C104.731 27.2151 100.341 22 94.4066 22H33.6003H33.6011ZM82.5087 73.1978C82.5087 80.9843 76.7238 85.7063 67.1233 85.7063H50.7798C50.3124 85.7062 49.8641 85.5197 49.5336 85.1879C49.2032 84.856 49.0175 84.406 49.0175 83.9367V43.2356C49.0174 43.0032 49.063 42.773 49.1516 42.5582C49.2401 42.3435 49.37 42.1484 49.5336 41.984C49.6973 41.8196 49.8917 41.6892 50.1056 41.6003C50.3195 41.5113 50.5487 41.4655 50.7802 41.4655H67.0298C75.035 41.4655 80.2886 45.8193 80.2886 52.503C80.2886 57.1944 76.7542 61.3944 72.2517 62.1297V62.3748C78.3817 63.0498 82.5087 67.3114 82.5087 73.1978ZM65.3406 47.0754H56.0225V60.2895H63.8712C69.9382 60.2895 73.284 57.8368 73.284 53.4525C73.284 49.3443 70.4066 47.0754 65.3406 47.0754ZM56.0225 65.5328V80.0948H65.6839C72.0003 80.0948 75.347 77.5503 75.347 72.7679C75.347 67.9847 71.9073 65.532 65.2777 65.532H56.0225V65.5328Z" fill="#7E13F8"/>
</g>
</g>
</svg>
