<svg width="128" height="128" viewBox="0 0 128 128" fill="none" xmlns="http://www.w3.org/2000/svg">
<g id="logos:javascript">
<g id="Frame 3">
<path id="Vector" d="M87.375 20H40.625C29.2341 20 20 29.2341 20 40.625V87.375C20 98.7659 29.2341 108 40.625 108H87.375C98.7659 108 108 98.7659 108 87.375V40.625C108 29.2341 98.7659 20 87.375 20Z" fill="#F0DB4F"/>
<path id="Vector_2" d="M43.1385 93.5391L49.8726 89.4636C51.172 91.7671 52.3538 93.7162 55.1887 93.7162C57.906 93.7162 59.6193 92.6533 59.6193 88.5187V60.4006H67.8892V88.6356C67.8892 97.2008 62.8684 101.1 55.5431 101.1C48.9276 101.1 45.0876 97.6734 43.1382 93.5385M72.381 92.653L79.1144 88.7545C80.8871 91.6492 83.1909 93.7756 87.2664 93.7756C90.6933 93.7756 92.8781 92.0624 92.8781 89.6995C92.8781 86.8642 90.6334 85.8598 86.8529 84.2063L84.7859 83.3198C78.8194 80.7802 74.8615 77.5902 74.8615 70.8561C74.8615 64.6535 79.5874 59.9276 86.9715 59.9276C92.2288 59.9276 96.0093 61.7591 98.7263 66.5438L92.2876 70.6787C90.8696 68.1388 89.3344 67.1347 86.9715 67.1347C84.5494 67.1347 83.0135 68.6706 83.0135 70.6787C83.0135 73.1596 84.5494 74.164 88.0935 75.7002L90.1608 76.5861C97.1901 79.599 101.148 82.6701 101.148 89.5812C101.148 97.0248 95.3002 101.1 87.4438 101.1C79.7647 101.1 74.8027 97.438 72.381 92.653Z" fill="#323330"/>
</g>
</g>
</svg>
