<svg width="128" height="128" viewBox="0 0 128 128" fill="none" xmlns="http://www.w3.org/2000/svg">
<g id="logos:php">
<g id="Frame 5">
<path id="Vector" d="M64 92C92.7188 92 116 79.6878 116 64.5C116 49.3122 92.7188 37 64 37C35.2812 37 12 49.3122 12 64.5C12 79.6878 35.2812 92 64 92Z" fill="url(#paint0_radial_1_34)"/>
<path id="Vector_2" d="M64 89.9569C91.597 89.9569 113.969 78.5595 113.969 64.5C113.969 50.4405 91.597 39.0431 64 39.0431C36.403 39.0431 14.0312 50.4405 14.0312 64.5C14.0312 78.5595 36.403 89.9569 64 89.9569Z" fill="#6181B6"/>
<path id="Vector_3" d="M74.1156 72.7541L76.5938 59.9235C77.1625 57.0223 76.675 54.8566 75.2125 53.5082C73.7906 52.2006 71.3531 51.5468 67.7781 51.5468H63.4719L64.6906 45.1724C64.7313 44.9272 64.6906 44.682 64.5281 44.4777C64.3656 44.2734 64.1625 44.1917 63.9188 44.1917H57.9875C57.5813 44.1917 57.2563 44.4777 57.175 44.8455L54.5344 58.4525C54.2906 56.8997 53.7219 55.5921 52.7469 54.5297C51 52.5275 48.2781 51.5059 44.5813 51.5059H33.1656C32.7594 51.5059 32.4344 51.792 32.3531 52.1597L27.0313 79.7823C26.9906 80.0275 27.0313 80.2727 27.1938 80.477C27.3563 80.6813 27.5594 80.763 27.8031 80.763H33.775C34.1813 80.763 34.5063 80.477 34.5875 80.1092L35.8875 73.4487H40.3156C42.6313 73.4487 44.6219 73.2036 46.125 72.7132C47.7094 72.182 49.1313 71.3239 50.3906 70.1389C51.4063 69.1991 52.2594 68.1367 52.9094 66.9926L51.8531 72.5089C51.8125 72.7541 51.8531 72.9993 52.0156 73.2036C52.1781 73.4079 52.3813 73.4896 52.625 73.4896H58.5563C58.9625 73.4896 59.2875 73.2036 59.3688 72.8358L62.2938 57.7169H66.3563C68.1031 57.7169 68.5906 58.0438 68.7531 58.2073C68.875 58.3299 69.1188 58.8202 68.8344 60.3321L66.4781 72.5498C66.4375 72.7949 66.4781 73.0401 66.6406 73.2444C66.8031 73.4487 67.0063 73.5305 67.25 73.5305H73.3438C73.7094 73.4079 74.0344 73.1218 74.1156 72.7541ZM46.6531 62.13C46.2875 64.0505 45.5969 65.4398 44.5813 66.2162C43.5656 66.9926 41.9 67.4012 39.7063 67.4012H37.0656L38.975 57.5126H42.3875C44.9063 57.5126 45.9219 58.0438 46.3281 58.4933C46.8563 59.1471 46.9781 60.4138 46.6531 62.13ZM99.4656 54.5297C97.7188 52.5275 94.9969 51.5059 91.3 51.5059H79.8031C79.3969 51.5059 79.0719 51.792 78.9906 52.1597L73.6688 79.7415C73.6281 79.9866 73.6688 80.2318 73.8313 80.4361C73.9938 80.6404 74.1969 80.7221 74.4406 80.7221H80.4125C80.8188 80.7221 81.1438 80.4361 81.225 80.0684L82.525 73.4079H86.9531C89.2688 73.4079 91.2594 73.1627 92.7625 72.6724C94.3469 72.1412 95.7688 71.2831 97.0281 70.0981C98.0844 69.1174 98.9781 68.0141 99.6281 66.8291C100.278 65.6441 100.766 64.3366 101.05 62.9064C101.741 59.3514 101.213 56.5728 99.4656 54.5297ZM93.25 62.13C92.8844 64.0505 92.1938 65.4398 91.1781 66.2162C90.1625 66.9926 88.4969 67.4012 86.3031 67.4012H83.6625L85.5719 57.5126H88.9844C91.5031 57.5126 92.5188 58.0438 92.925 58.4933C93.4938 59.1471 93.6156 60.4138 93.25 62.13Z" fill="white"/>
<path id="Vector_4" d="M42.3875 56.6954C44.6625 56.6954 46.1656 57.104 46.9375 57.9621C47.7094 58.8202 47.8719 60.2504 47.4656 62.2935C47.0594 64.4183 46.2469 65.971 45.0688 66.87C43.8906 67.7689 42.1031 68.2184 39.7062 68.2184H36.0906L38.325 56.6954H42.3875ZM27.8438 79.9049H33.8156L35.2375 72.5906H40.3563C42.6313 72.5906 44.4594 72.3455 45.9219 71.8551C47.3844 71.3648 48.6844 70.5884 49.9031 69.4443C50.9188 68.5045 51.7313 67.4829 52.3406 66.3796C52.95 65.2764 53.3969 64.0505 53.6406 62.7021C54.2906 59.4331 53.8031 56.8997 52.2188 55.0609C50.6344 53.2221 48.1156 52.3232 44.6625 52.3232H33.1656L27.8438 79.9049ZM58.0281 45.0089H63.9594L62.5375 52.3232H67.8188C71.15 52.3232 73.425 52.8952 74.6844 54.0802C75.9438 55.2652 76.3094 57.1449 75.8219 59.76L73.3438 72.5906H67.3313L69.6875 60.373C69.9719 58.9836 69.85 58.0438 69.4031 57.5535C68.9563 57.0631 67.9406 56.7771 66.4375 56.7771H61.6844L58.6375 72.5906H52.7063L58.0281 45.0089ZM88.9844 56.6954C91.2594 56.6954 92.7625 57.104 93.5344 57.9621C94.3063 58.8202 94.4688 60.2504 94.0625 62.2935C93.6563 64.4183 92.8438 65.971 91.6656 66.87C90.4875 67.7689 88.7 68.2184 86.3031 68.2184H82.6875L84.9219 56.6954H88.9844ZM74.4406 79.9049H80.4125L81.8344 72.5906H86.9531C89.2281 72.5906 91.0563 72.3455 92.5188 71.8551C93.9813 71.3648 95.2813 70.5884 96.5 69.4443C97.5156 68.5045 98.3281 67.4829 98.9375 66.3796C99.5469 65.2764 99.9938 64.0505 100.238 62.7021C100.888 59.4331 100.4 56.8997 98.8156 55.0609C97.2313 53.2221 94.7125 52.3232 91.2594 52.3232H79.7625L74.4406 79.9049Z" fill="#000004"/>
</g>
</g>
<defs>
<radialGradient id="paint0_radial_1_34" cx="0" cy="0" r="1" gradientUnits="userSpaceOnUse" gradientTransform="translate(43.2209 46.671) scale(68.2888 68.6868)">
<stop stop-color="white"/>
<stop offset="0.5" stop-color="#4C6B97"/>
<stop offset="1" stop-color="#231F20"/>
</radialGradient>
</defs>
</svg>
