<svg width="128" height="128" viewBox="0 0 128 128" fill="none" xmlns="http://www.w3.org/2000/svg">
<g id="logos:ant-design">
<g id="Group">
<g id="Frame 18">
<path id="Vector" d="M59.9045 17.7079L17.7016 59.8769C17.1623 60.4144 16.7343 61.053 16.4423 61.7562C16.1503 62.4594 16 63.2133 16 63.9747C16 64.7362 16.1503 65.4901 16.4423 66.1933C16.7343 66.8965 17.1623 67.5351 17.7016 68.0725L59.9045 110.241C62.1736 112.508 65.8382 112.508 68.1069 110.241L85.8023 92.5605C87.8342 90.53 87.8342 87.2382 85.8023 85.2081C83.7703 83.1776 80.4758 83.1776 78.4438 85.2081L65.0292 98.6114C64.4645 99.1757 63.6074 99.1757 63.0427 98.6114L29.3405 64.937C28.7758 64.3727 28.7758 63.5163 29.3405 62.952L63.0427 29.2772C63.6074 28.7132 64.4645 28.7132 65.0292 29.2772L78.4438 42.6809C80.4758 44.7114 83.7703 44.7114 85.8023 42.6809C87.8342 40.6504 87.8342 37.359 85.8023 35.3285L68.1088 17.65C65.8307 15.4317 62.1646 15.4497 59.9045 17.7079Z" fill="url(#paint0_linear_3_4)"/>
<path id="Vector_2" d="M59.9045 17.7078L17.7016 59.8769C17.1623 60.4143 16.7343 61.0529 16.4423 61.7561C16.1503 62.4593 16 63.2133 16 63.9747C16 64.7361 16.1503 65.49 16.4423 66.1932C16.7343 66.8964 17.1623 67.535 17.7016 68.0725L59.9045 110.241C62.1736 112.508 65.8382 112.508 68.1069 110.241L85.8023 92.5604C87.8342 90.5299 87.8342 87.2381 85.8023 85.208C83.7703 83.1775 80.4758 83.1775 78.4438 85.208L65.0292 98.6113C64.4645 99.1757 63.6074 99.1757 63.0427 98.6113L29.3405 64.9369C28.7758 64.3726 28.7758 63.5163 29.3405 62.9519L63.0427 29.2771C64.4487 28.065 66.7433 25.6099 70.1122 25.0351C72.6161 24.6086 75.3537 25.548 78.3247 27.8531L68.1091 17.6496C65.8307 15.4316 62.165 15.4496 59.9045 17.7078Z" fill="url(#paint1_linear_3_4)"/>
<path id="Vector_3" d="M89.8872 81.2861C91.9191 83.3166 95.2136 83.3166 97.2456 81.2861L110.298 68.2442C110.838 67.7068 111.266 67.0681 111.558 66.3649C111.85 65.6617 112 64.9078 112 64.1464C112 63.385 111.85 62.6311 111.558 61.9279C111.266 61.2247 110.838 60.5861 110.298 60.0486L97.1321 46.9391C95.0953 44.9113 91.7997 44.9143 89.7665 46.9459C87.7346 48.9764 87.7346 52.2678 89.7665 54.2983L98.6591 63.1838C99.2239 63.7481 99.2239 64.6044 98.6591 65.1688L89.8872 73.9336C87.8552 75.9641 87.8552 79.256 89.8872 81.2861Z" fill="url(#paint2_linear_3_4)"/>
<path id="Vector_4" d="M64.2167 75.5711C70.5099 75.5711 75.6117 70.4736 75.6117 64.1855C75.6117 57.8974 70.5099 52.7999 64.2167 52.7999C57.9234 52.7999 52.8217 57.8974 52.8217 64.1855C52.8217 70.4736 57.9234 75.5711 64.2167 75.5711Z" fill="url(#paint3_linear_3_4)"/>
</g>
</g>
</g>
<defs>
<linearGradient id="paint0_linear_3_4" x1="4445.5" y1="16.0002" x2="8456.05" y2="2465.18" gradientUnits="userSpaceOnUse">
<stop stop-color="#4285EB"/>
<stop offset="1" stop-color="#2EC7FF"/>
</linearGradient>
<linearGradient id="paint1_linear_3_4" x1="4983.45" y1="16.0001" x2="3002.62" y2="10253.5" gradientUnits="userSpaceOnUse">
<stop stop-color="#29CDFF"/>
<stop offset="0.3786" stop-color="#148EFF"/>
<stop offset="1" stop-color="#0A60FF"/>
</linearGradient>
<linearGradient id="paint2_linear_3_4" x1="1743.92" y1="-439.661" x2="-833.473" y2="3591.11" gradientUnits="userSpaceOnUse">
<stop stop-color="#FA816E"/>
<stop offset="0.41473" stop-color="#F74A5C"/>
<stop offset="1" stop-color="#F51D2C"/>
</linearGradient>
<linearGradient id="paint3_linear_3_4" x1="1605.46" y1="-759.928" x2="747.882" y2="2670.53" gradientUnits="userSpaceOnUse">
<stop stop-color="#FA8E7D"/>
<stop offset="0.51264" stop-color="#F74A5C"/>
<stop offset="1" stop-color="#F51D2C"/>
</linearGradient>
</defs>
</svg>
