<svg width="128" height="128" viewBox="0 0 128 128" fill="none" xmlns="http://www.w3.org/2000/svg">
<g id="logos:3Ds-max">
<g id="Frame 8">
<path id="Vector" d="M58.9143 35.0903L78.8411 16M58.9143 35.0903H58.9314L26.1646 34.9806M58.9143 35.0903L49.6297 43.8949L26.1646 34.9806M58.9143 35.0903L58.7669 80.536L49.1394 84.3074L27.5874 64.3429L49.6126 43.8983L58.8697 47.5086M58.9143 35.0903L102.8 63.808M78.8411 16H34.4789L26.1646 34.9806M78.8411 16L102.8 63.808M102.8 63.808L58.8834 47.5086M102.8 63.808L78.896 112M102.8 63.808L58.6571 93.184M102.8 63.808L58.7669 80.5463M58.7634 80.5463L58.6537 93.1806M78.896 112L49.1394 84.3211L26 93.0194L34.424 112H78.896Z" stroke="#1D1D1B" stroke-width="0.028" stroke-miterlimit="22.926"/>
<path id="Vector_2" fill-rule="evenodd" clip-rule="evenodd" d="M58.8834 47.5086L102.8 63.808L58.9314 35.0903L58.8834 47.5086Z" fill="#181B17"/>
<path id="Vector_3" fill-rule="evenodd" clip-rule="evenodd" d="M102.8 63.808L58.7669 80.5463L58.6572 93.1737L58.6607 93.1806L102.8 63.808Z" fill="#1A1D1A"/>
<path id="Vector_4" fill-rule="evenodd" clip-rule="evenodd" d="M58.9314 35.0903L102.8 63.808L78.8411 16L58.9314 35.0903Z" fill="#005F5E"/>
<path id="Vector_5" fill-rule="evenodd" clip-rule="evenodd" d="M102.8 63.808L58.6606 93.1806L78.8961 112L102.8 63.808Z" fill="#004242"/>
<path id="Vector_6" fill-rule="evenodd" clip-rule="evenodd" d="M58.7668 80.5463L102.8 63.808L58.8834 47.5086L58.7668 80.5463Z" fill="#005152"/>
<path id="Vector_7" fill-rule="evenodd" clip-rule="evenodd" d="M58.7668 80.5463L58.8834 47.5086L49.6297 43.8983L27.5874 64.3566L49.1394 84.3211L58.7668 80.5463Z" fill="#00696B"/>
<path id="Vector_8" fill-rule="evenodd" clip-rule="evenodd" d="M49.6298 43.8983L58.8835 47.5086L58.9315 35.0903L49.6298 43.8983Z" fill="#1B2725"/>
<path id="Vector_9" fill-rule="evenodd" clip-rule="evenodd" d="M58.767 80.5463L49.1395 84.3211L58.6572 93.1737L58.767 80.5463Z" fill="#1C2624"/>
<path id="Vector_10" fill-rule="evenodd" clip-rule="evenodd" d="M58.6571 93.184L26 93.0194L34.424 112H78.896L58.6606 93.1806L58.6571 93.184Z" fill="#006466"/>
<path id="Vector_11" fill-rule="evenodd" clip-rule="evenodd" d="M26.1647 34.9806L58.9315 35.0903L78.8412 16H34.479L26.1647 34.9806Z" fill="#00767A"/>
<path id="Vector_12" fill-rule="evenodd" clip-rule="evenodd" d="M58.9315 35.0903L26.1647 34.9806L49.6298 43.8983L58.9315 35.0903Z" fill="#1E3938"/>
<path id="Vector_13" fill-rule="evenodd" clip-rule="evenodd" d="M49.1394 84.3211L26 93.0194L58.6571 93.184V93.1737L49.1394 84.3211Z" fill="#20302E"/>
</g>
</g>
</svg>
