<svg width="128" height="128" viewBox="0 0 128 128" fill="none" xmlns="http://www.w3.org/2000/svg">
<g id="logos:premiere">
<g id="Frame 12">
<path id="Vector" d="M30.4165 13H97.5835C107.767 13 116 21.2032 116 31.3488V95.6784C116 105.824 107.767 114.027 97.5835 114.027H30.4165C20.2335 114.027 12 105.824 12 95.6784V31.3488C12 21.2032 20.2335 13 30.4165 13Z" fill="#00005B"/>
<path id="Vector_2" d="M36.7 83.8486V39.4225C36.7 39.1202 36.83 38.9477 37.1335 38.9477L37.7623 38.9465L38.249 38.9425L38.5923 38.936L38.9579 38.9267L39.3508 38.9129L39.56 38.9044C39.95 38.8882 40.3461 38.8781 40.7503 38.8696L41.9914 38.8437C42.1324 38.8405 42.275 38.8368 42.4184 38.8324L42.853 38.8182C43.243 38.8036 43.6428 38.7939 44.0523 38.7858L45.3088 38.7636L46.1786 38.7445L46.6234 38.7316C47.5188 38.7033 48.3951 38.6935 49.2649 38.6903L50.5665 38.6887C54.12 38.6887 57.0665 39.1202 59.4934 40.0268C61.6687 40.7629 63.6522 41.9723 65.3 43.5672C66.6964 44.963 67.7752 46.6415 68.4634 48.4891C69.1134 50.3024 69.46 52.159 69.46 54.1018C69.46 57.8147 68.5934 60.8799 66.86 63.2979C65.1265 65.7155 62.7 67.5288 59.8834 68.565C57.0348 69.6085 53.903 70.0059 50.4877 70.0314H49.249L48.7668 70.0266L48.4577 70.0193L48.2757 70.0116L48.1124 70.0019L47.9665 69.9897C47.873 69.9807 47.7792 69.9736 47.6854 69.9687L47.4741 69.9594L47.2426 69.9533L46.8562 69.9481L46.1035 69.9464V83.8053C46.1465 84.1077 45.93 84.3667 45.6265 84.41H37.22C36.8735 84.41 36.7 84.2372 36.7 83.8486ZM46.1465 47.2801V61.7865L46.656 61.823C47.0488 61.8529 47.4425 61.8696 47.8365 61.8732H50.1334C51.8234 61.8732 53.5135 61.6141 55.1165 61.096C56.5035 60.7075 57.7165 59.887 58.67 58.8075C59.58 57.7284 60.0134 56.2604 60.0134 54.3609C60.0542 53.0116 59.7084 51.6787 59.0165 50.5181C58.3109 49.4427 57.3261 48.6048 56.1395 48.1187L55.9835 48.0572C54.38 47.4096 52.6465 47.1505 50.87 47.1938L49.8682 47.1951L49.3973 47.1979L48.9476 47.204L48.5206 47.2137C48.3126 47.2193 48.1132 47.227 47.9235 47.2372C47.8303 47.2325 47.7372 47.2287 47.644 47.2258L47.3844 47.2202C47.3437 47.2197 47.3031 47.2194 47.2625 47.2193L47.0325 47.2206L46.8237 47.2262L46.727 47.2303L46.5495 47.2404L46.3935 47.2525L46.3232 47.259L46.2001 47.2732L46.1465 47.2801ZM75.5265 49.7843H83.11C83.5191 49.7843 83.8514 50.0539 83.9964 50.4113L84.02 50.4752C84.15 50.8205 84.2365 51.1657 84.28 51.5543C84.3665 51.9862 84.4535 52.4609 84.4965 52.8928L84.5331 53.3105C84.5615 53.6671 84.5835 54.0464 84.5835 54.4471C85.8244 53.0034 87.3127 51.7907 88.9791 50.8654L89.22 50.7343C91.2134 49.6115 93.51 49.0505 95.8065 49.0505C96.11 49.0072 96.37 49.2229 96.4135 49.5252V58.117C96.4135 58.4623 96.1965 58.5918 95.72 58.5918C94.264 58.5513 92.7706 58.6618 91.3447 58.9573L91.04 59.0237C89.7834 59.2827 88.57 59.6713 87.4 60.1894C86.5765 60.5779 85.7965 61.096 85.19 61.7865V83.8053C85.19 84.2372 85.0165 84.41 84.6265 84.41H76.09C75.7434 84.4529 75.44 84.2372 75.3965 83.8919V59.8008C75.3965 58.7646 75.3965 57.6851 75.3535 56.5627L75.3274 55.7209L75.2925 54.0371C75.2856 53.7562 75.2775 53.4757 75.2665 53.1952C75.2665 52.2019 75.18 51.2523 75.0935 50.2591C75.05 50.0433 75.18 49.8276 75.3965 49.7843C75.3965 49.7475 75.4603 49.7422 75.5058 49.7681L75.5265 49.7843Z" fill="#9999FF"/>
</g>
</g>
</svg>
