<svg width="128" height="128" viewBox="0 0 128 128" fill="none" xmlns="http://www.w3.org/2000/svg">
<g id="logos:css">
<g id="Frame 2">
<path id="Vector" d="M64.024 116L33.7472 107.647L27 32.4385H101.139L94.3845 107.635L64.024 116Z" fill="#1572B6"/>
<path id="Vector_2" d="M88.6021 102.847L94.3737 38.5877H64.0693V109.606L88.6021 102.847Z" fill="#33A9DC"/>
<path id="Vector_3" d="M42.4676 66.4815L43.2994 75.7055H64.0693V66.4815H42.4676ZM40.796 47.812L41.6397 57.036H64.0693V47.812H40.796ZM64.0693 90.4373L64.0286 90.4479L53.692 87.6741L53.0312 80.3176H43.7141L45.0143 94.8007L64.0266 100.046L64.0693 100.034V90.4373Z" fill="#EBEBEB"/>
<path id="Vector_4" d="M44.4481 12H55.6891V16.6719H49.1491V21.3438H55.6897V26.0155H44.4481V12ZM57.9376 12H69.1788V16.0625H62.6385V16.875H69.1788V26.2188H57.9379V21.9527H64.4781V21.1402H57.9373L57.9376 12ZM71.4273 12H82.6686V16.0625H76.1283V16.875H82.6686V26.2188H71.4273V21.9527H77.9676V21.1402H71.4276V12H71.4273Z" fill="black"/>
<path id="Vector_5" d="M85.6116 66.4815L87.287 47.812H64.0373V57.036H77.1155L76.271 66.4815H64.0373V75.7055H75.4663L74.3887 87.6684L64.037 90.4451V100.041L83.0644 94.8007L83.2039 93.2423L85.3852 68.9584L85.6116 66.4815Z" fill="white"/>
</g>
</g>
</svg>
