<svg width="128" height="128" viewBox="0 0 128 128" fill="none" xmlns="http://www.w3.org/2000/svg">
<g id="logos:html">
<g id="Frame 1">
<path id="Vector" d="M101.139 32.4385L94.3844 107.635L64.024 116L33.7472 107.647L27 32.4385H101.139Z" fill="#E44D26"/>
<path id="Vector_2" d="M64.0693 109.606L88.6021 102.847L94.3737 38.5877H64.0693V109.606Z" fill="#F16529"/>
<path id="Vector_3" d="M50.9393 57.036H64.0693V47.812H40.796L41.018 50.2866L43.2994 75.7055H64.0693V66.4815H51.7876L50.9393 57.036ZM53.0312 80.3176H43.7141L45.0143 94.8007L64.0266 100.046L64.0693 100.034V90.4373L64.0286 90.4479L53.692 87.6741L53.0312 80.3176Z" fill="#EBEBEB"/>
<path id="Vector_4" d="M33.8977 12H38.6144V16.6312H42.9291V12H47.6461V26.0244H42.9294V21.3283H38.6147V26.0244H33.898L33.8977 12ZM53.8484 16.6508H49.6967V12H62.7203V16.6508H58.5659V26.0244H53.8492V16.6508H53.8484ZM64.7871 12H69.7052L72.7305 16.9278L75.7529 12H80.673V26.0244H75.9755V19.0732L72.7305 24.0596H72.6491L69.4021 19.0732V26.0244H64.7871V12ZM83.0202 12H87.7384V21.3889H94.3713V26.0244H83.0199V12H83.0202Z" fill="black"/>
<path id="Vector_5" d="M64.0373 75.7055H75.4663L74.3887 87.6684L64.037 90.4451V100.041L83.0644 94.8007L83.2039 93.2423L85.3852 68.9584L85.6116 66.4815H64.0373V75.7055ZM64.0373 57.0135V57.036H86.4561L86.6421 54.9629L87.0653 50.2866L87.287 47.812H64.0373V57.0135Z" fill="white"/>
</g>
</g>
</svg>
