<?xml version="1.0" standalone="no"?>
<!DOCTYPE svg PUBLIC "-//W3C//DTD SVG 20010904//EN"
 "http://www.w3.org/TR/2001/REC-SVG-20010904/DTD/svg10.dtd">
<svg version="1.0" xmlns="http://www.w3.org/2000/svg"
 width="512.000000pt" height="512.000000pt" viewBox="0 0 512.000000 512.000000"
 preserveAspectRatio="xMidYMid meet">

<g transform="translate(0.000000,512.000000) scale(0.100000,-0.100000)"
fill="#ca8a04" stroke="none">
<path d="M366,4464c-255-62-415-322-351-569c20-75,57-143,107-195c45-46,2175-1471,2253-1506c119-54,260-52,382,5
		c95,45,2182,1442,2235,1496c249,254,113,686-243,770C4655,4487,458,4486,366,4464z"/>
	<path d="M0,2236c0-810,3-1181,11-1218c37-176,179-320,360-363c94-22,4267-22,4372,0c182,38,329,184,366,363c13,61,16,2386,3,2380
		c-4-1-487-323-1074-715s-1099-729-1139-748c-110-56-204-77-339-77s-229,21-339,77c-40,19-552,356-1139,748S12,3397,8,3398
		C3,3400,0,2877,0,2236z"/>
</g>
</svg>
